<svg id="PMS_7465_black_85_" data-name="PMS 7465, black 85%" xmlns="http://www.w3.org/2000/svg" viewBox="0 0 140.9 77.4"><title>logo</title><path d="M120.2,140.5a6.9,6.9,0,0,1,6.9-6.8,7.1,7.1,0,0,1,4.3,1.5,1.5,1.5,0,0,1,.3,2,1.4,1.4,0,0,1-2,.3,4.3,4.3,0,0,0-2.6-.9,3.9,3.9,0,1,0,0,7.8,4.4,4.4,0,0,0,2.6-.9,1.5,1.5,0,0,1,2,.3,1.5,1.5,0,0,1-.3,2,7.4,7.4,0,0,1-4.3,1.4A6.8,6.8,0,0,1,120.2,140.5Z" transform="translate(-87.1 -90.3)" style="fill:#fff"/><path d="M149.7,140.5a6.7,6.7,0,0,1,6.6-6.7,6.5,6.5,0,0,1,6.5,6.3h0a.7.7,0,0,1,0,.2,1.3,1.3,0,0,1-1.4,1.1h-8.6a3.5,3.5,0,0,0,.9,1.8,4.2,4.2,0,0,0,2.6,1.2,4.4,4.4,0,0,0,2.8-.7,1.5,1.5,0,0,1,2-.1,1.2,1.2,0,0,1,0,1.8,6.8,6.8,0,0,1-4.8,1.8A6.7,6.7,0,0,1,149.7,140.5Zm2.9-1.3h7.6a4.4,4.4,0,0,0-4-2.9A3.8,3.8,0,0,0,152.6,139.2Z" transform="translate(-87.1 -90.3)" style="fill:#fff"/><path d="M194.4,140.5a6.9,6.9,0,0,1,6.9-6.8,7.1,7.1,0,0,1,4.3,1.5,1.5,1.5,0,0,1,.3,2,1.4,1.4,0,0,1-2,.3,4.3,4.3,0,0,0-2.6-.9,3.9,3.9,0,1,0,0,7.8,4.4,4.4,0,0,0,2.6-.9,1.5,1.5,0,0,1,2,.3,1.5,1.5,0,0,1-.3,2,7.4,7.4,0,0,1-4.3,1.4A6.8,6.8,0,0,1,194.4,140.5Z" transform="translate(-87.1 -90.3)" style="fill:#fff"/><path d="M222,140.5v5.3a1.4,1.4,0,0,1-1.4,1.4,1.5,1.5,0,0,1-1.4-1.2,6.1,6.1,0,0,1-3.6,1.2,6.3,6.3,0,0,1-4.6-2,6.9,6.9,0,0,1-1.8-4.8,6.8,6.8,0,0,1,1.8-4.8,6.1,6.1,0,0,1,8.2-.8,1.5,1.5,0,0,1,1.4-1.2,1.4,1.4,0,0,1,1.4,1.5Zm-2.9,0a4,4,0,0,0-1.1-2.8,3.3,3.3,0,0,0-2.5-1.1,3.3,3.3,0,0,0-2.5,1.1,4,4,0,0,0-1,2.8,4.1,4.1,0,0,0,1,2.8,3.4,3.4,0,0,0,2.5,1.1,3.5,3.5,0,0,0,2.5-1.1A4.1,4.1,0,0,0,219.1,140.5Z" transform="translate(-87.1 -90.3)" style="fill:#fff"/><path d="M151.5,161.3a6.7,6.7,0,0,1-1.9-4.8,7,7,0,0,1,1.9-4.7,6.3,6.3,0,0,1,4.6-2,6,6,0,0,1,4.5,2,6.7,6.7,0,0,1,1.9,4.7,6.5,6.5,0,0,1-1.9,4.8,6,6,0,0,1-4.5,2.1A6.3,6.3,0,0,1,151.5,161.3Zm1.1-4.8a4.4,4.4,0,0,0,1,2.9,3.7,3.7,0,0,0,2.6,1,3.5,3.5,0,0,0,2.5-1,4.1,4.1,0,0,0,1.1-2.9,4.1,4.1,0,0,0-1.1-2.8,3.8,3.8,0,0,0-2.5-1,3.9,3.9,0,0,0-2.6,1A4.3,4.3,0,0,0,152.6,156.5Z" transform="translate(-87.1 -90.3)" style="fill:#fff"/><path d="M171.4,163.2a5.6,5.6,0,0,1-5.6-5.6v-6.5a1.5,1.5,0,0,1,1.4-1.4,1.4,1.4,0,0,1,1.4,1.4v6.5a2.7,2.7,0,0,0,2.8,2.8,2.8,2.8,0,0,0,2.8-2.8v-6.5a1.4,1.4,0,0,1,1.4-1.4,1.5,1.5,0,0,1,1.5,1.4v6.5A5.7,5.7,0,0,1,171.4,163.2Z" transform="translate(-87.1 -90.3)" style="fill:#fff"/><path d="M186.2,152.7a1.5,1.5,0,0,0,1.5-1.5,1.5,1.5,0,0,0-1.5-1.5h-.7V139.4a5.6,5.6,0,0,0-5.6-5.7,5.6,5.6,0,0,0-4.2,1.9,5.6,5.6,0,0,0-4.2-1.9,5.7,5.7,0,0,0-2.9.8,1.4,1.4,0,0,0-1.3-.8,1.4,1.4,0,0,0-1.4,1.5v4.2h0v6.4a1.5,1.5,0,0,0,1.2,1.4h.3a1.6,1.6,0,0,0,1.3-.9h0v-.2h0v-6.6a2.8,2.8,0,0,1,5.5-.1h0v6.4a1.5,1.5,0,0,0,1.5,1.4,1.4,1.4,0,0,0,1.4-1.4v-6.4h0a2.8,2.8,0,0,1,2.8-2.7,2.8,2.8,0,0,1,2.7,2.8v10.3h-.8a1.5,1.5,0,0,0-1.5,1.5,1.5,1.5,0,0,0,1.5,1.5h.8v7.5a2.9,2.9,0,0,0,2.9,3,1.5,1.5,0,0,0,1.5-1.5,1.5,1.5,0,0,0-1.5-1.5v-7.5Z" transform="translate(-87.1 -90.3)" style="fill:#fff"/><path d="M191.5,161.7a1.5,1.5,0,0,1-1.5,1.5,1.5,1.5,0,0,1-1.4-1.1,1.6,1.6,0,0,1-.1-.4V135.3a1.5,1.5,0,0,1,3,0v15.2a6.1,6.1,0,0,1,2.9-.8,5.9,5.9,0,0,1,5.9,5.9v6.1a1.5,1.5,0,1,1-3,0v-6.1a2.9,2.9,0,1,0-5.8,0Z" transform="translate(-87.1 -90.3)" style="fill:#fff"/><path d="M146.6,150.8a1.5,1.5,0,0,0-1.4-1.1,1.5,1.5,0,0,0-1.5,1.5v6.1a2.9,2.9,0,1,1-5.8,0v-6.1a1.5,1.5,0,1,0-3,0v6.1a5.9,5.9,0,0,0,5.9,5.9,6.1,6.1,0,0,0,2.7-.7h0a3.6,3.6,0,0,1-3.4,2.4,3.6,3.6,0,0,1-1.6-.4,1.5,1.5,0,0,0-1.9.6,1.4,1.4,0,0,0,.7,1.9,6.4,6.4,0,0,0,9.2-5.8v-10A1.7,1.7,0,0,0,146.6,150.8Z" transform="translate(-87.1 -90.3)" style="fill:#fff"/><circle cx="102.9" cy="39.5" r="1.5" style="fill:#fff"/><path d="M137.9,145.8a1.5,1.5,0,0,1-1.5,1.5,1.5,1.5,0,0,1-1.4-1.1,1.7,1.7,0,0,1-.1-.4V129.8a1.5,1.5,0,0,1,3,0v4.7a6.2,6.2,0,0,1,2.9-.8,5.9,5.9,0,0,1,5.9,5.9v6.1a1.5,1.5,0,0,1-3,0v-6.1a2.9,2.9,0,1,0-5.8,0Z" transform="translate(-87.1 -90.3)" style="fill:#fff"/><path d="M226.4,128.3a1.5,1.5,0,0,1,1.5,1.5v15.9a1.5,1.5,0,0,1-3,0V129.8A1.5,1.5,0,0,1,226.4,128.3Z" transform="translate(-87.1 -90.3)" style="fill:#fff"/><path d="M143.4,112.1c-.8.8-2.9,2.7-4.6,2.7h-3c-1.7,0-3.9-1.9-4.6-2.6a5.6,5.6,0,1,0,0,8c.8-.8,2.9-2.6,4.6-2.7h3c1.7,0,3.9,1.9,4.6,2.6a5.6,5.6,0,1,0,0-8Z" transform="translate(-87.1 -90.3)" style="fill:#fff"/><path d="M108.9,146.6c.8-.8,2.7-2.9,2.7-4.6v-1.5h0V139c0-1.7-1.9-3.8-2.6-4.6a5.6,5.6,0,1,1,8,0c-.8.8-2.7,2.9-2.7,4.6v3c0,1.7,1.9,3.9,2.6,4.6a5.6,5.6,0,1,1-8,0Z" transform="translate(-87.1 -90.3)" style="fill:#fff"/><path d="M96.7,134.4c.8-.8,2.9-2.7,4.6-2.7h3c1.7,0,3.8,1.9,4.6,2.6a5.6,5.6,0,1,0,0-8c-.8.8-2.9,2.6-4.6,2.7h-3c-1.7,0-3.8-1.9-4.6-2.6a5.6,5.6,0,1,0,0,8Z" transform="translate(-87.1 -90.3)" style="fill:#fff"/><circle cx="54.4" cy="11.6" r="6.8" style="fill:#fff"/><path d="M131.2,112.1c-.8-.8-2.7-2.9-2.7-4.6V106h0v-1.5c0-1.7,1.9-3.9,2.6-4.6a5.6,5.6,0,1,0-8,0c.8.8,2.7,2.9,2.7,4.6v3c0,1.7-1.9,3.9-2.6,4.6a5.6,5.6,0,1,0,8,0Z" transform="translate(-87.1 -90.3)" style="fill:#fff"/></svg>